<?xml version="1.0" standalone="no"?>
<!DOCTYPE svg PUBLIC "-//W3C//DTD SVG 1.1//EN" "http://www.w3.org/Graphics/SVG/1.1/DTD/svg11.dtd">
<svg xmlns="http://www.w3.org/2000/svg">
<metadata>Copyright (C) 2022 by original authors @ fontello.com</metadata>
<defs>
<font id="fi" horiz-adv-x="1000" >
<font-face font-family="fi" font-weight="400" font-stretch="normal" units-per-em="1000" ascent="850" descent="-150" />
<missing-glyph horiz-adv-x="1000" />
<glyph glyph-name="magnifying-glass-solid" unicode="&#x21;" d="M813 444c0-90-30-173-79-240l248-247c24-25 24-64 0-89s-64-24-89 0l-247 248c-67-50-150-78-240-78-224 0-406 181-406 406s182 406 406 406 407-182 407-406z m-407-281c156 0 282 126 282 281s-126 281-282 281-281-126-281-281 126-281 281-281z" horiz-adv-x="1000" />

<glyph glyph-name="tag-solid" unicode="&#x22;" d="M0 694v-292c0-33 13-65 37-89l343-344c49-48 128-48 177 0l261 261c49 49 49 128 0 177l-344 344c-23 23-55 36-88 36h-292c-52 1-94-41-94-93z m219-188c-35 0-63 28-63 63s28 62 63 62 62-28 62-62-28-63-62-63z" horiz-adv-x="875" />

<glyph glyph-name="tags-solid" unicode="&#x23;" d="M674 774l249-253c103-103 103-270 0-373l-218-222c-18-18-48-18-66 0s-19 48-1 66l219 222c66 67 66 174 0 241l-250 253c-18 18-18 48 1 66s48 18 66-1z m-674-372v292c0 52 42 94 94 94h292c33 0 65-14 88-37l328-328c49-49 49-128 0-177l-260-261c-49-49-128-49-177 0l-328 329c-24 23-37 55-37 88z m281 167c0 34-28 62-62 62s-63-28-63-62 28-63 63-63 62 28 62 63z" horiz-adv-x="1000" />

<glyph glyph-name="envelope-solid" unicode="&#x24;" d="M94 725c-52 0-94-42-94-94 0-29 14-57 38-75l425-318c22-17 52-17 75 0l425 318c23 18 37 46 37 75 0 52-42 94-94 94h-812z m-94-219v-406c0-69 56-125 125-125h750c69 0 125 56 125 125v406l-425-318c-44-34-105-34-150 0l-425 318z" horiz-adv-x="1000" />

<glyph glyph-name="github" unicode="&#x25;" d="M324 74c0-4-4-7-10-7-7-1-11 2-11 7 0 4 4 7 10 7 6 0 11-3 11-7z m-61 9c-1-4 3-9 9-10 5-2 11 0 12 4s-3 8-9 10c-5 2-10 0-12-4z m87 3c-6-1-10-5-9-10 0-3 5-6 11-5 6 2 10 5 9 9 0 4-6 7-11 6z m128 748c-271 0-478-205-478-476 0-217 136-402 331-467 25-5 34 11 34 23 0 12-1 79-1 120 0 0-136-29-165 58 0 0-22 57-54 72 0 0-45 31 3 30 0 0 48-4 75-50 43-76 115-54 142-41 5 31 18 53 32 66-109 12-220 28-220 215 0 54 15 81 46 115-5 13-21 66 6 133 40 13 134-53 134-53 39 11 81 17 123 17s84-6 123-17c0 0 94 66 134 53 27-68 11-120 5-133 32-34 51-61 51-115 0-188-115-203-224-215 18-16 33-45 33-91 0-66-1-147-1-163 0-13 9-29 34-24 195 65 328 250 328 467 0 271-220 476-491 476z m-288-673c-3-2-2-7 1-10 3-3 8-5 10-2 3 2 2 6-1 10-3 3-8 4-10 2z m-21 16c-2-3 0-6 4-8 3-2 7-1 9 1 1 3-1 6-5 8-4 1-7 1-8-1z m63-70c-3-2-2-8 3-12 4-5 10-5 12-2 3 3 2 8-2 12-5 5-10 5-13 2z m-22 29c-3-2-3-7 0-12 3-4 8-6 11-4 3 2 3 7 0 12-3 4-8 6-11 4z" horiz-adv-x="969" />

<glyph glyph-name="backward-solid" unicode="&#x26;" d="M898-11c18-15 44-19 66-8s36 32 36 57v625c0 24-14 46-36 56s-48 7-66-8l-335-280v-81-81l335-280z m-398 174v187 250 63c0 24-14 46-36 56s-48 7-66-8l-375-313c-15-12-23-29-23-48s8-36 23-48l375-313c18-15 44-19 66-8s36 32 36 57v125z" horiz-adv-x="1000" />

<glyph glyph-name="angle-right-solid" unicode="&#x27;" d="M544 394c25-24 25-64 0-88l-312-313c-25-24-64-24-89 0s-24 64 0 89l269 268-269 268c-24 25-24 64 0 89s64 24 89 0l312-313z" horiz-adv-x="625" />

<glyph glyph-name="forward-solid" unicode="&#x28;" d="M103-11c-19-15-45-19-67-8s-36 32-36 57v625c0 24 14 46 36 56s48 7 67-8l335-280v-81-81l-335-280z m397 174v187 250 63c0 24 14 46 36 56s48 7 67-8l375-313c14-12 22-29 22-48s-8-36-22-48l-375-313c-19-15-45-19-67-8s-36 32-36 57v125z" horiz-adv-x="1000" />

<glyph glyph-name="fire-solid" unicode="&#x29;" d="M311 840c15 14 39 14 54-1 54-50 105-105 152-164 22 28 46 59 72 84 16 14 40 14 55 0 68-65 125-150 165-231 40-79 66-161 66-218 0-249-195-460-437-460-246 0-438 211-438 460 0 75 35 167 89 257 54 92 131 188 222 273z m130-802c49 0 93 13 134 41 82 57 105 172 55 262-5 11-11 22-19 33l-99-115s-159 202-170 216c-82-101-123-159-123-224 0-134 99-213 222-213z" horiz-adv-x="875" />

<glyph glyph-name="clone-regular" unicode="&#x2a;" d="M125-56h438c17 0 31 14 31 31v125h94v-125c0-69-57-125-125-125h-438c-69 0-125 56-125 125v438c0 68 56 125 125 125h125v-94h-125c-17 0-31-14-31-31v-438c0-17 14-31 31-31z m188 781c0 69 56 125 125 125h437c69 0 125-56 125-125v-437c0-69-56-125-125-125h-437c-69 0-125 56-125 125v437z m125-469h437c17 0 31 14 31 32v437c0 17-14 31-31 31h-437c-18 0-32-14-32-31v-437c0-18 14-32 32-32z" horiz-adv-x="1000" />

<glyph glyph-name="copyright-solid" unicode="&#x2b;" d="M500-150c276 0 500 224 500 500s-224 500-500 500-500-224-500-500 224-500 500-500z m-110 390c60-61 159-61 220 0 19 18 48 18 67 0s18-49 0-67c-98-97-256-97-354 0s-98 256 0 354 256 97 354 0c18-19 18-48 0-66s-48-19-67 0c-61 61-160 61-220 0s-61-160 0-221z" horiz-adv-x="1000" />

<glyph glyph-name="shield-solid" unicode="&#x2c;" d="M500 850c9 0 18-2 26-6l368-156c43-18 75-60 75-111-1-194-81-549-418-710-32-15-70-15-103 0-336 161-416 516-417 710 0 51 32 93 75 111l368 156c8 4 17 6 26 6z" horiz-adv-x="1000" />

<glyph glyph-name="chart-simple-solid" unicode="&#x2d;" d="M313 694c0 52 42 94 93 94h63c52 0 94-42 94-94v-688c0-52-42-94-94-94h-63c-51 0-93 42-93 94v688z m-313-375c0 52 42 94 94 94h62c52 0 94-42 94-94v-313c0-52-42-94-94-94h-62c-52 0-94 42-94 94v313z m719 344h62c52 0 94-42 94-94v-563c0-52-42-94-94-94h-62c-52 0-94 42-94 94v563c0 52 42 94 94 94z" horiz-adv-x="875" />

<glyph glyph-name="clock-solid" unicode="&#x2e;" d="M500-150c-276 0-500 224-500 500s224 500 500 500 500-224 500-500-224-500-500-500z m-47 766v-266c0-16 8-30 21-39l188-125c21-14 50-9 65 13s8 51-13 65l-167 111v241c0 26-21 47-47 47s-47-21-47-47z" horiz-adv-x="1000" />

<glyph glyph-name="calendar-day-solid" unicode="&#x2f;" d="M250 850c35 0 63-28 63-62v-63h250v63c0 34 27 62 62 62s63-28 63-62v-63h93c52 0 94-42 94-94v-93h-875v93c0 52 42 94 94 94h94v63c0 34 27 62 62 62z m-250-375h875v-531c0-52-42-94-94-94h-687c-52 0-94 42-94 94v531z m156-125c-17 0-31-14-31-31v-188c0-17 14-31 31-31h188c17 0 31 14 31 31v188c0 17-14 31-31 31h-188z" horiz-adv-x="875" />

<glyph glyph-name="book-open-reader-solid" unicode="&#x30;" d="M688 663c0-104-84-188-188-188s-187 84-187 188 84 187 187 187 188-84 188-187z m-219-297v-516l-95 47c-41 21-85 33-130 38l-188 19c-32 3-56 30-56 62v397c0 34 28 62 63 62h59c124 0 245-38 347-109z m62-516v516c102 71 223 109 347 109h60c34 0 62-28 62-62v-397c0-32-24-59-56-62l-188-19c-45-4-89-17-130-38l-95-47z" horiz-adv-x="1000" />

<glyph glyph-name="bookmark-regular" unicode="&#x31;" d="M656 850h-562c-52 0-94-42-94-94v-843c0-49 52-79 94-54l281 164 281-164c42-23 94 5 94 54v843c0 52-42 94-94 94z m0-883l-281 164-281-164v778c0 6 5 11 10 11h539c8 0 13-5 13-11v-778z" horiz-adv-x="750" />

<glyph glyph-name="check-solid" unicode="&#x32;" d="M919 644c25-24 25-64 0-88l-500-500c-24-25-64-25-88 0l-250 250c-25 24-25 64 0 88s64 25 88 0l206-205 456 455c24 25 64 25 88 0z" horiz-adv-x="1000" />

<glyph glyph-name="box-solid" unicode="&#x34;" d="M99 736l-99-198h406v250h-223c-35 0-68-21-84-52z m370-198h406l-99 198c-16 31-48 52-84 52h-223v-250z m406-63h-875v-437c0-69 56-126 125-126h625c69 0 125 57 125 126v437z" horiz-adv-x="875" />

<glyph glyph-name="swatchbook-solid" unicode="&#x35;" d="M0 788c0 34 28 62 63 62h250c34 0 62-28 62-62v-750c0-104-84-188-187-188s-188 84-188 188v750z m437-770c0 7 1 13 1 20v511l147 148c24 24 64 24 88 0l177-177c24-25 24-64 0-89l-413-413z m-80-168l375 375h206c34 0 62-28 62-62v-251c0-34-28-62-62-62h-581z m-107 875h-125v-125h125v125z m-125-250v-125h125v125h-125z m63-484c26 0 46 21 46 47s-20 46-46 46-47-20-47-46 21-47 47-47z" horiz-adv-x="1000" />

<glyph glyph-name="house-solid" unicode="&#x36;" d="M1125 351c0-35-30-63-63-63h-62l1-313c0-5 0-10-1-15v-32c0-43-35-78-78-78h-31c-2 0-5 0-7 0-3 0-5 0-8 0h-63-47c-43 0-78 35-78 78v47 125c0 35-28 63-63 63h-125c-35 0-62-28-62-63v-125-47c0-43-35-78-79-78h-46-63c-3 0-6 0-9 0-2 0-4 0-7 0h-31c-43 0-78 35-78 78v219c0 2 0 4 0 5v136h-62c-36 0-63 28-63 63 0 18 6 33 20 47l500 436c14 14 30 16 43 16s30-4 41-14l499-438c16-14 24-29 22-47z" horiz-adv-x="1125" />

<glyph glyph-name="feather-solid" unicode="&#x37;" d="M544 429l-499-499c-18-18-18-48 0-66s48-19 66 0l112 111h132c97 0 192 28 272 80 21 14 11 45-15 45-10 0-18 8-18 18 0 8 5 15 12 17l159 48c4 1 9 4 13 8l43 43c20 20 6 54-22 54l-63 0c-10 0-18 8-18 18 0 8 6 15 13 17l219 66c8 2 14 7 18 15 21 41 32 86 32 134 0 80-32 156-88 213l-11 11c-57 56-133 88-213 88s-157-32-214-88l-202-203c-94-94-147-221-147-353v-108l370 370c12 12 32 12 45 0 10-11 11-27 4-39z" horiz-adv-x="1000" />

<glyph glyph-name="pen-to-square-regular" unicode="&#x38;" d="M729 801c55 55 144 55 199 0l23-23c55-55 55-144 0-199l-385-386c-17-16-38-29-61-35l-195-56c-17-5-34 0-46 13-12 11-17 28-12 45l56 195c6 23 19 44 35 61l386 385z m131-66c-17 18-47 18-65 0l-57-57 90-90 57 59c18 16 18 46 0 64l-25 24z m-462-406l-33-114 114 33c8 2 15 6 21 12l262 262-90 90-262-262c-6-6-10-13-12-21z m-7 396c26 0 47-21 47-47 0-26-21-47-47-47h-219c-43 0-78-35-78-78v-531c0-43 35-78 78-78h531c43 0 78 35 78 78v219c0 26 21 47 47 47 26 0 47-21 47-47v-219c0-95-77-172-172-172h-531c-95 0-172 77-172 172v531c0 95 77 172 172 172h219z" horiz-adv-x="1000" />

<glyph glyph-name="user-solid" unicode="&#x39;" d="M438 350c138 0 250 112 250 250s-112 250-250 250-250-112-250-250 111-250 250-250z m-90-94c-192 0-348-156-348-348 0-32 26-58 58-58h759c32 0 58 26 58 58 0 192-156 348-348 348h-179z" horiz-adv-x="875" />
</font>
</defs>
</svg>
